
<svg id="Layer_1" data-name="Layer 1" xmlns="http://www.w3.org/2000/svg" xmlns:xlink="http://www.w3.org/1999/xlink" viewBox="0 0 101 100.33">
    <defs>
        <style>  
            .cls-1,
            .cls-17 {
                opacity: 0.6;
            }

            .cls-2,
            .cls-5,
            .cls-7 {
                fill: #389bf3;
            }

            .cls-2,
            .cls-3 {
                opacity: 0.8;
            }

            .cls-12,
            .cls-13,
            .cls-2,
            .cls-3,
            .cls-7,
            .cls-8,
            .cls-9 {
                isolation: isolate;
            }

            .cls-3,
            .cls-6,
            .cls-9 {
                fill: #ff9d23;
            }

            .cls-4,
            .cls-8 {
                fill: #aa7dff;
            }

            .cls-12,
            .cls-7,
            .cls-8,
            .cls-9 {
                opacity: 0.5;
            }

            .cls-10 {
                fill: #fff;
            }

            .cls-11,
            .cls-12,
            .cls-13,
            .cls-14,
            .cls-15,
            .cls-17 {
                fill: none;
                stroke: #732e54;
                stroke-miterlimit: 10;
            }

            .cls-13 {
                opacity: 0.2;
            }

            .cls-14,
            .cls-15 {
                stroke-width: 2px;
            }

            .cls-15 {
                stroke-linecap: round;
            }

            .cls-16 {
                fill: url(#linear-gradient);
            }

            .cls-17 {
                font-size: 24.94px;
                font-family: 'Dosis', sans-serif;
                font-weight: 600;
                letter-spacing: 0.12em;
            }

            .cls-18 {
                letter-spacing: 0.12em;
            }

            .cls-19 {
                letter-spacing: 0.03em;
            }
        </style>
        <linearGradient id="linear-gradient" x1="-1765.67" y1="534.96" x2="-1758.57" y2="534.96" gradientTransform="matrix(-0.86, -0.51, -0.51, 0.86, -1181.41, -1327.56)" gradientUnits="userSpaceOnUse">
            <stop offset="0.04" stop-color="#f27b40" />
            <stop offset="1" stop-color="#ec697d" />
        </linearGradient>
    </defs>
    <title>entry_text_icon</title>
    <g class="cls-1">
        <g id="Layer_1-2" data-name="Layer 1-2">
            <path class="cls-2" d="M90.66,24.62,69.24,38.3a2.84,2.84,0,0,1-3.9-.81,2.76,2.76,0,0,1,.83-3.85L87.59,20a2.85,2.85,0,0,1,3.9.81,2.77,2.77,0,0,1-.83,3.85Z" transform="translate(0.5 -0.17)" />
            <path class="cls-3" d="M62,43,47.71,52.16a2.85,2.85,0,0,1-3.9-.82,2.77,2.77,0,0,1,.83-3.86L59,38.32a2.84,2.84,0,0,1,3.9.81A2.76,2.76,0,0,1,62,43Z" transform="translate(0.5 -0.17)" />
            <path class="cls-4" d="M80.61,21.4,59.19,35.08a2.85,2.85,0,0,1-3.91-.81,2.77,2.77,0,0,1,.83-3.85h0L77.53,16.74a2.84,2.84,0,0,1,3.86,1,2.77,2.77,0,0,1-.78,3.64Z" transform="translate(0.5 -0.17)" />
            <path class="cls-5" d="M52,39.75,37.66,48.94a2.86,2.86,0,0,1-3.95-.62,2.76,2.76,0,0,1,.62-3.89l.26-.17,14.32-9.18a2.85,2.85,0,0,1,3.9.82A2.76,2.76,0,0,1,52,39.75Z" transform="translate(0.5 -0.17)" />
            <path class="cls-6" d="M87.06,17.25l-.13.09a2.85,2.85,0,0,1-3.9-.82,2.77,2.77,0,0,1,.83-3.85l.13-.08a2.84,2.84,0,0,1,3.9.82A2.75,2.75,0,0,1,87.06,17.25Z" transform="translate(0.5 -0.17)" />
            <path class="cls-7" d="M89.57,35,68.15,48.68a2.84,2.84,0,0,1-3.9-.81A2.76,2.76,0,0,1,65.08,44h0L86.5,30.34a2.84,2.84,0,0,1,3.9.81A2.76,2.76,0,0,1,89.57,35Z" transform="translate(0.5 -0.17)" />
            <path class="cls-8" d="M61,53.36,46.62,62.54a2.85,2.85,0,0,1-3.9-.82,2.76,2.76,0,0,1,.83-3.85h0l14.33-9.18a2.85,2.85,0,0,1,3.9.82A2.76,2.76,0,0,1,61,53.36Z" transform="translate(0.5 -0.17)" />
            <path class="cls-9" d="M96,30.86,95.9,31a2.85,2.85,0,0,1-3.9-.82,2.76,2.76,0,0,1,.83-3.85L93,26.2a2.84,2.84,0,0,1,3.9.82A2.75,2.75,0,0,1,96,30.86Z" transform="translate(0.5 -0.17)" />
            <rect class="cls-10" x="20.48" y="0.83" width="49.56" height="68.83" />
            <line class="cls-11" x1="63.92" y1="64.41" x2="63.92" y2="50.45" />
            <line class="cls-12" x1="63.92" y1="48.45" x2="63.92" y2="43.9" />
            <line class="cls-13" x1="63.92" y1="41.95" x2="63.92" y2="38.45" />
            <path class="cls-14" d="M22.66,1.17H65.82A3.18,3.18,0,0,1,69,4.33V66.84A3.18,3.18,0,0,1,65.82,70H22.66a3.18,3.18,0,0,1-3.2-3.16V4.33A3.18,3.18,0,0,1,22.66,1.17Z" transform="translate(0.5 -0.17)" />
            <line class="cls-15" x1="33.68" y1="11.61" x2="57.5" y2="11.61" />
            <line class="cls-15" x1="33.68" y1="17.48" x2="41.49" y2="17.48" />
            <line class="cls-15" x1="33.68" y1="29.24" x2="41.49" y2="29.24" />
            <line class="cls-15" x1="33.68" y1="23.36" x2="55.36" y2="23.36" />
            <line class="cls-15" x1="33.39" y1="61.86" x2="55.83" y2="61.86" />
            <path class="cls-16" d="M73.27,9.17h0a3.33,3.33,0,0,1,1.21,4.61v0l-25,41.32L43,59.89l.56-8.2,25-41.35a3.45,3.45,0,0,1,4.69-1.19Z" transform="translate(0.5 -0.17)" />
            <polygon class="cls-10" points="50.35 53.8 43.95 58.53 44.52 50.28 50.35 53.8" />
            <path class="cls-14" d="M73.15,9.58h0a3.36,3.36,0,0,1,1.18,4.64L49.9,54.62l-7.12,5.62L44,51.13,68.44,10.75A3.46,3.46,0,0,1,73.15,9.58Z" transform="translate(0.5 -0.17)" />
        </g>
    </g><text class="cls-17" transform="translate(0.5 93.92) scale(1.04 1)">N<tspan class="cls-18" x="17.69" y="0">o </tspan>
        <tspan class="cls-19" x="40.73" y="0">T</tspan>
        <tspan class="cls-18" x="54.13" y="0">ask</tspan>
    </text>
</svg>