<?xml version="1.0" encoding="utf-8"?>
<!-- Generator: Adobe Illustrator 23.0.2, SVG Export Plug-In . SVG Version: 6.00 Build 0)  -->
<svg version="1.1" id="Layer_1" xmlns="http://www.w3.org/2000/svg" xmlns:xlink="http://www.w3.org/1999/xlink" x="0px" y="0px"
	 viewBox="0 0 500 500" style="enable-background:new 0 0 500 500;" xml:space="preserve">
<style type="text/css">
	.st0{fill:url(#SVGID_1_);}
	.st1{opacity:0.7;fill:url(#SVGID_2_);enable-background:new    ;}
	.st2{fill:#0CBC81;}
	.st3{fill:#068960;}
	.st4{opacity:0.5;fill:#057751;enable-background:new    ;}
	.st5{fill:#04B77B;}
	.st6{opacity:0.5;fill:#068960;enable-background:new    ;}
	.st7{fill:#FF725E;}
	.st8{fill:#263238;stroke:#263238;stroke-linecap:round;stroke-linejoin:round;}
	.st9{fill:none;stroke:#263238;stroke-linecap:round;stroke-linejoin:round;}
	.st10{fill:#FF725E;stroke:#263238;stroke-linecap:round;stroke-linejoin:round;}
	.st11{fill:#D9D9D9;}
	.st12{clip-path:url(#SVGID_4_);}
	.st13{opacity:0.15;enable-background:new    ;}
	.st14{clip-path:url(#SVGID_6_);}
	.st15{fill:none;stroke:#263238;stroke-width:4;stroke-linecap:round;stroke-linejoin:round;}
	.st16{fill:#D9D9D9;stroke:#263238;stroke-linecap:round;stroke-linejoin:round;}
	.st17{clip-path:url(#SVGID_8_);}
	.st18{fill:#FFFFFF;}
	.st19{clip-path:url(#SVGID_10_);}
	.st20{opacity:0.5;fill:#FFFFFF;enable-background:new    ;}
	.st21{fill:#FFFFFF;stroke:#263238;stroke-linecap:round;stroke-linejoin:round;}
	.st22{clip-path:url(#SVGID_12_);}
	.st23{clip-path:url(#SVGID_14_);}
	.st24{clip-path:url(#SVGID_16_);}
	.st25{clip-path:url(#SVGID_18_);}
	.st26{clip-path:url(#SVGID_20_);}
	.st27{clip-path:url(#SVGID_22_);}
	.st28{clip-path:url(#SVGID_24_);}
</style>
<g id="freepik--background-simple--inject-31">
	<linearGradient id="SVGID_1_" gradientUnits="userSpaceOnUse" x1="59.6882" y1="255.6089" x2="434.9094" y2="255.6089">
		<stop  offset="0" style="stop-color:#00BF8C"/>
		<stop  offset="8.863336e-02" style="stop-color:#00BE92"/>
		<stop  offset="0.6774" style="stop-color:#00B9B3"/>
		<stop  offset="1" style="stop-color:#00B7BF"/>
	</linearGradient>
	<path class="st0" d="M165.3,113.3c0,0-60.7,35-88.7,85s-21.2,111.5,20.1,155s113.7,33,176.7,58.3s129.8,15.2,154.4-48.1
		s-20.5-83.6-33-154.4S309.1,38.2,165.3,113.3z"/>
	<linearGradient id="SVGID_2_" gradientUnits="userSpaceOnUse" x1="59.6882" y1="255.6089" x2="434.9094" y2="255.6089">
		<stop  offset="0" style="stop-color:#00BF8C"/>
		<stop  offset="8.863336e-02" style="stop-color:#00BE92"/>
		<stop  offset="0.6774" style="stop-color:#00B9B3"/>
		<stop  offset="1" style="stop-color:#00B7BF"/>
	</linearGradient>
	<path class="st1" d="M165.3,113.3c0,0-60.7,35-88.7,85s-21.2,111.5,20.1,155s113.7,33,176.7,58.3s129.8,15.2,154.4-48.1
		s-20.5-83.6-33-154.4S309.1,38.2,165.3,113.3z"/>
</g>
<g id="freepik--Pictures--inject-31">
	<rect x="155.3" y="134.9" class="st2" width="60.5" height="80.7"/>
	<rect x="160.8" y="142.3" class="st3" width="49.4" height="65.9"/>
	<rect x="160.8" y="142.3" class="st4" width="49.4" height="65.9"/>
	<rect x="88.7" y="182" class="st5" width="51.4" height="68.6"/>
	<rect x="93.4" y="188.3" class="st3" width="42" height="56"/>
	<rect x="93.4" y="188.3" class="st6" width="42" height="56"/>
</g>
<g id="freepik--Window--inject-31">
	<path class="st7" d="M300.7,337.6h126.5V134.8H300.7V337.6z M366.7,288.9h55.5V284h-55.5v-45.3h55.5v-4.9h-55.5v-44.3h55.5v-4.9
		h-55.5v-44.8h55.9v193h-55.9L366.7,288.9z M305.3,139.7h56.8v44.8h-56.8V139.7z M305.3,189.4h56.8v44.3h-56.8V189.4z M305.3,238.7
		h56.8V284h-56.8V238.7z M305.3,288.9h56.8v43.9h-56.8V288.9z"/>
	<path class="st7" d="M426.8,130.1c-3.2-34.9-34.1-60.7-69-57.4c-30.5,2.8-54.7,27-57.4,57.4l-0.3,3.3h127.1L426.8,130.1z
		 M306.8,127.4c1.6-11.3,6.6-21.9,14.4-30.4l35.7,30.3L306.8,127.4z M359.9,122l-34.4-29.3c9.6-8.4,21.7-13.4,34.4-14.2V122z
		 M366,78.5c12,0.4,23.5,4.6,33,12l-33,31V78.5z M368.7,127.4l34.9-32.8c9.1,8.8,15,20.3,16.8,32.8L368.7,127.4z"/>
</g>
<g id="freepik--Character--inject-31">
	<path class="st8" d="M253.9,198.3c0,0-19.2,1.1-29.4,0.9s-17.6-2.6-20.3,1.9s-3,2.7-7.4,10.8s-45.1,45.5-45.9,51.4
		c-1.3,9.3,8.3,15.9,13.6,17.2s34.2-27.5,34.2-27.5s-2.9,47-3.9,66.3s-1.5,76.1-1.5,76.1h98.3c0,0-1.9-45.9-1.7-55.2s11-55,11-55
		s-0.8,18,1.7,25.2s18.9,23.9,28.4,20.5s4.7-17.8,3.5-27.9s-1.1-39.1-1.1-58.3s1.1-23-5.5-25.2s-19.5-4.9-29.4-8.7
		s-25.2-8.2-27.9-9.1S253.9,198.3,253.9,198.3z"/>
	<line class="st9" x1="75.8" y1="395.5" x2="424.2" y2="395.5"/>
	<path class="st10" d="M259.8,192.4c0,0-6.3-0.4-11.6,5.7s-18,26.9-19.9,29.6s1.7,1.3,5.3,0.9s14.4-1.9,16.9-0.9s12.7,2.1,16.9,6.6
		s13.5,14.8,14.8,12.1s4.5-14.8,6.1-23s2.7-16.3-3.6-24.5S259.8,192.4,259.8,192.4z"/>
	<path class="st11" d="M258.7,183.3c-0.6,8-2.8,15.8-6.7,22.8c-6.4,12.1-3.4,35.1-0.2,34s22.8-14.1,25.5-21.5s2.1-18.4,6.8-30.2
		s7.8-18.4,7.8-18.4S263.6,182.9,258.7,183.3z"/>
	<g>
		<defs>
			<path id="SVGID_3_" d="M258.7,183.3c-0.6,8-2.8,15.8-6.7,22.8c-6.4,12.1-3.4,35.1-0.2,34s22.8-14.1,25.5-21.5s2.1-18.4,6.8-30.2
				s7.8-18.4,7.8-18.4S263.6,182.9,258.7,183.3z"/>
		</defs>
		<clipPath id="SVGID_4_">
			<use xlink:href="#SVGID_3_"  style="overflow:visible;"/>
		</clipPath>
		<g class="st12">
			<path class="st13" d="M258.7,183.3c-0.3,4.2-1,8.4-2.4,12.5c2.8,0.8,5.7,1.2,8.6,1.1c10.3,0,11.3-1.8,11.3-1.8
				s-2.1,15.2-4.6,22.7c-1.4,4.3-3.5,9.1-4.9,12.4c4.9-3.9,9.4-8.3,10.5-11.5c2.6-7.4,2.1-18.4,6.8-30.2s7.8-18.4,7.8-18.4
				S263.6,182.9,258.7,183.3z"/>
		</g>
	</g>
	<path class="st9" d="M258.7,183.3c-0.6,8-2.8,15.8-6.7,22.8c-6.4,12.1-3.4,35.1-0.2,34s22.8-14.1,25.5-21.5s2.1-18.4,6.8-30.2
		s7.8-18.4,7.8-18.4S263.6,182.9,258.7,183.3z"/>
	<path class="st11" d="M271,101.9c-7,4.7-12.7,11.1-16.5,18.6c-6.1,12.3-5.7,28.7-5.7,28.7s0.6,18.2-0.4,25.4s8,12.3,12.1,12.5
		s17.1-8.4,23.2-10.8s7.8-2.9,13.7-8.7s16-23.7,16.5-33.8s-1.1-21.8-9.9-28.8S283.5,95.6,271,101.9z"/>
	<g>
		<defs>
			<path id="SVGID_5_" d="M271,101.9c-7,4.7-12.7,11.1-16.5,18.6c-6.1,12.3-5.7,28.7-5.7,28.7s0.6,18.2-0.4,25.4s8,12.3,12.1,12.5
				s17.1-8.4,23.2-10.8s7.8-2.9,13.7-8.7s16-23.7,16.5-33.8s-1.1-21.8-9.9-28.8S283.5,95.6,271,101.9z"/>
		</defs>
		<clipPath id="SVGID_6_">
			<use xlink:href="#SVGID_5_"  style="overflow:visible;"/>
		</clipPath>
		<g class="st14">
			<path class="st13" d="M256.3,185.9c1.3,0.7,2.8,1.1,4.3,1.2c4.2,0.2,17.1-8.4,23.2-10.8s7.8-2.9,13.7-8.7s16-23.7,16.5-33.8
				c0.4-5.7-0.2-11.4-1.9-16.8c-4.7,1.8-8.9,4.8-12,8.7c-7.1,8.9,0,16-6,25.5s-15.6,14.8-22.7,22.3S265.9,185.7,256.3,185.9z"/>
		</g>
	</g>
	<path class="st9" d="M271,101.9c-7,4.7-12.7,11.1-16.5,18.6c-6.1,12.3-5.7,28.7-5.7,28.7s0.6,18.2-0.4,25.4s8,12.3,12.1,12.5
		s17.1-8.4,23.2-10.8s7.8-2.9,13.7-8.7s16-23.7,16.5-33.8s-1.1-21.8-9.9-28.8S283.5,95.6,271,101.9z"/>
	<path class="st9" d="M263.6,143.9c0,0-2.7,1.3-2.7,2.9s1.9,1.9,1.9,1.9"/>
	<path class="st9" d="M264.9,144.5c0,0-2.7,3-1.3,4.9s5.3,0.6,5.3,0.6s-0.2,0.9,2.1,1.1s3.6-2.7,2.3-4.6l-1.3-1.9"/>
	<path class="st8" d="M266.9,134.2c-0.5,1.4-1.4,2.3-2,2.1s-0.8-1.5-0.4-2.9s1.4-2.3,2-2.1S267.3,132.8,266.9,134.2z"/>
	<path class="st9" d="M267.2,131.8c-0.6-1.5-2.2-2.2-3.7-1.6c0,0-0.1,0-0.1,0c-2.7,1.1-4,7.8-1.1,9.1"/>
	<path class="st8" d="M282.8,138.7c-0.5,1.4-1.4,2.3-2,2.1s-0.8-1.5-0.4-2.9s1.4-2.3,2-2.1S283.3,137.4,282.8,138.7z"/>
	<path class="st9" d="M283.1,136.3c-0.6-1.5-2.2-2.2-3.7-1.6c0,0-0.1,0-0.1,0.1c-2.6,1.1-4,7.8-1.1,9.1"/>
	<path class="st9" d="M258.9,161.3c-1.1-0.6-6.1-3.6-5.9-5.5s2.1-4.6,4-2.9c1.9,1.7,6.8,5.3,6.8,5.3s2.9,3.4,8.2,1"/>
	<path class="st15" d="M259.2,125.6c0,0,2.5-4.7,5.9-5.1s5.1,3.4,5.1,4"/>
	<path class="st15" d="M278.2,128.1c0,0,3.4,4.2,11,4.6"/>
	<path class="st8" d="M313.9,133.8c0.6-10.1-1.1-21.8-9.9-28.8s-20.5-9.3-33-3c0,0-0.9,0.6-2.4,1.6c3.9,5,9.6,8.2,15.8,8.8
		c11.8,1.3,15.6-1,19,1.5s4.4,9.3,1.9,11.6s-8.4,2.1-8.7,5.5c-0.4,3.4,5.5,11.6,4.8,14.2s-2.3,4.4-1.1,5.5s4.4-0.4,5.1-0.8
		s0.4,4.2-1.9,9.6C308.5,151.6,313.5,140.8,313.9,133.8z"/>
	<path class="st16" d="M297.9,154.6c0,0,4.8-6.3,8.2-6.3s5.1,5.5,3.2,10.6s-5.3,7.8-9.5,8.2s-4.5-1.7-4.2-3"/>
	<path class="st11" d="M295.7,269.5c0,0,5.3,13.5,9.1,18s14,12,22.6,17.6s10.3,18.4,8.9,23.1s-5.3,8.5-14.2,6.1
		s-16.1-13.1-23.5-24.1s-12.3-19.2-12.9-19.7S295.7,269.5,295.7,269.5z"/>
	<g>
		<defs>
			<path id="SVGID_7_" d="M295.7,269.5c0,0,5.3,13.5,9.1,18s14,12,22.6,17.6s10.3,18.4,8.9,23.1s-5.3,8.5-14.2,6.1
				s-16.1-13.1-23.5-24.1s-12.3-19.2-12.9-19.7S295.7,269.5,295.7,269.5z"/>
		</defs>
		<clipPath id="SVGID_8_">
			<use xlink:href="#SVGID_7_"  style="overflow:visible;"/>
		</clipPath>
		<g class="st17">
			<path class="st13" d="M336.3,328.3c1.3-4.7-0.4-17.5-8.9-23.1s-18.8-13.1-22.6-17.6s-9.1-18-9.1-18s-10.7,20.5-10.1,21
				s5.5,8.7,12.9,19.7l0.3,0.4l5.1-7.8c0,0,27.6,21.3,28.4,26.2c0.2,1.6,0.2,3.2,0,4.8C334.3,332.6,335.7,330.6,336.3,328.3z"/>
		</g>
	</g>
	<path class="st9" d="M295.7,269.5c0,0,5.3,13.5,9.1,18s14,12,22.6,17.6s10.3,18.4,8.9,23.1s-5.3,8.5-14.2,6.1s-16.1-13.1-23.5-24.1
		s-12.3-19.2-12.9-19.7S295.7,269.5,295.7,269.5z"/>
	<path class="st18" d="M301.4,416c0,0,5,1.8,15.2-2.2c14.6-5.7,37.9-24.8,37.9-24.8c-11.2,2-22.8,2-34,0
		c-18.8-3.4-28.9-8.4-28.9-8.4l-19.8,28.2L301.4,416z"/>
	<g>
		<defs>
			<path id="SVGID_9_" d="M301.4,416c0,0,5,1.8,15.2-2.2c14.6-5.7,37.9-24.8,37.9-24.8c-11.2,2-22.8,2-34,0
				c-18.8-3.4-28.9-8.4-28.9-8.4l-19.8,28.2L301.4,416z"/>
		</defs>
		<clipPath id="SVGID_10_">
			<use xlink:href="#SVGID_9_"  style="overflow:visible;"/>
		</clipPath>
		<g class="st19">
			<path class="st7" d="M301.4,416c0,0,5,1.8,15.2-2.2c14.6-5.7,37.9-24.8,37.9-24.8c-11.2,2-22.8,2-34,0
				c-18.8-3.4-28.9-8.4-28.9-8.4l-19.8,28.2L301.4,416z"/>
			<path class="st20" d="M301.4,416c0,0,5,1.8,15.2-2.2c14.6-5.7,37.9-24.8,37.9-24.8c-11.2,2-22.8,2-34,0
				c-18.8-3.4-28.9-8.4-28.9-8.4l-19.8,28.2L301.4,416z"/>
		</g>
	</g>
	<path class="st21" d="M301.4,416c0,0,5,1.8,15.2-2.2c14.6-5.7,37.9-24.8,37.9-24.8c-11.2,2-22.8,2-34,0
		c-18.8-3.4-28.9-8.4-28.9-8.4l-19.8,28.2L301.4,416z"/>
	<line class="st9" x1="274.6" y1="405.9" x2="312.7" y2="412.3"/>
	<line class="st9" x1="318" y1="408.9" x2="280.2" y2="402"/>
	<line class="st9" x1="321.9" y1="405.6" x2="289.4" y2="399.8"/>
	<line class="st9" x1="327.4" y1="401.4" x2="296.6" y2="395.6"/>
	<line class="st9" x1="329.4" y1="394.2" x2="300.2" y2="390.9"/>
	<path class="st18" d="M317.8,365.9c0,0,7.9-1.3,3.6,10.5s-18.5,22.2-20.2,30.7s0.2,8.9,0.2,8.9l-24.6-5.3c0,0,1.9-18.3,15.4-32.3
		S317.8,365.9,317.8,365.9z"/>
	<g>
		<defs>
			<path id="SVGID_11_" d="M317.8,365.9c0,0,7.9-1.3,3.6,10.5s-18.5,22.2-20.2,30.7s0.2,8.9,0.2,8.9l-24.6-5.3
				c0,0,1.9-18.3,15.4-32.3S317.8,365.9,317.8,365.9z"/>
		</defs>
		<clipPath id="SVGID_12_">
			<use xlink:href="#SVGID_11_"  style="overflow:visible;"/>
		</clipPath>
		<g class="st22">
			<path class="st13" d="M317.8,365.9c0,0,7.9-1.3,3.6,10.5s-18.5,22.2-20.2,30.7s0.2,8.9,0.2,8.9l-24.6-5.3c0,0,1.9-18.3,15.4-32.3
				S317.8,365.9,317.8,365.9z"/>
		</g>
	</g>
	<path class="st9" d="M317.8,365.9c0,0,7.9-1.3,3.6,10.5s-18.5,22.2-20.2,30.7s0.2,8.9,0.2,8.9l-24.6-5.3c0,0,1.9-18.3,15.4-32.3
		S317.8,365.9,317.8,365.9z"/>
	<path class="st18" d="M269.8,424c0,0,4.1-1,8.2-7s13.3-25.1,20.7-35.2s19-15.9,19-15.9l-58.6-6.5c0,0-23.9,26.8-32.1,36.2
		s-9.2,18.1-3.4,20.3s24.1,4.3,28.9,5.1C257.5,421.6,265.7,424.7,269.8,424z"/>
	<g>
		<defs>
			<path id="SVGID_13_" d="M269.8,424c0,0,4.1-1,8.2-7s13.3-25.1,20.7-35.2s19-15.9,19-15.9l-58.6-6.5c0,0-23.9,26.8-32.1,36.2
				s-9.2,18.1-3.4,20.3s24.1,4.3,28.9,5.1C257.5,421.6,265.7,424.7,269.8,424z"/>
		</defs>
		<clipPath id="SVGID_14_">
			<use xlink:href="#SVGID_13_"  style="overflow:visible;"/>
		</clipPath>
		<g class="st23">
			<path class="st7" d="M269.8,424c0,0,4.1-1,8.2-7s13.3-25.1,20.7-35.2s19-15.9,19-15.9l-58.6-6.5c0,0-23.9,26.8-32.1,36.2
				s-9.2,18.1-3.4,20.3s24.1,4.3,28.9,5.1C257.5,421.6,265.7,424.7,269.8,424z"/>
			<path class="st20" d="M269.8,424c0,0,4.1-1,8.2-7s13.3-25.1,20.7-35.2s19-15.9,19-15.9l-58.6-6.5c0,0-23.9,26.8-32.1,36.2
				s-9.2,18.1-3.4,20.3s24.1,4.3,28.9,5.1C257.5,421.6,265.7,424.7,269.8,424z"/>
		</g>
	</g>
	<path class="st21" d="M269.8,424c0,0,4.1-1,8.2-7s13.3-25.1,20.7-35.2s19-15.9,19-15.9l-58.6-6.5c0,0-23.9,26.8-32.1,36.2
		s-9.2,18.1-3.4,20.3s24.1,4.3,28.9,5.1C257.5,421.6,265.7,424.7,269.8,424z"/>
	<line class="st9" x1="273.4" y1="415.7" x2="220.7" y2="404.5"/>
	<line class="st9" x1="276.7" y1="409.1" x2="224" y2="397.9"/>
	<line class="st9" x1="280.9" y1="401.6" x2="228.2" y2="390.4"/>
	<line class="st9" x1="285.4" y1="392.5" x2="232.8" y2="381.3"/>
	<line class="st9" x1="290.4" y1="383.3" x2="237.7" y2="372.1"/>
	<line class="st9" x1="294.6" y1="375.9" x2="241.9" y2="364.7"/>
	<line class="st9" x1="300.8" y1="370.1" x2="248.1" y2="358.9"/>
	<path class="st18" d="M287.4,356c0,0,4.8,0,2.2,7.7s-18.3,28-23.4,41.7s3.6,18.6,3.6,18.6s-1.9,2.9-30.1-3.1s-46.3-6.8-48-11.6
		s9.4-17.8,13.5-28.2s14.5-34.7,14.5-34.7s41,8,49.7,8.7S287.4,356,287.4,356z"/>
	<g>
		<defs>
			<path id="SVGID_15_" d="M287.4,356c0,0,4.8,0,2.2,7.7s-18.3,28-23.4,41.7s3.6,18.6,3.6,18.6s-1.9,2.9-30.1-3.1s-46.3-6.8-48-11.6
				s9.4-17.8,13.5-28.2s14.5-34.7,14.5-34.7s41,8,49.7,8.7S287.4,356,287.4,356z"/>
		</defs>
		<clipPath id="SVGID_16_">
			<use xlink:href="#SVGID_15_"  style="overflow:visible;"/>
		</clipPath>
		<g class="st24">
			<path class="st13" d="M287.4,356c0,0-9.4-0.2-18.1-1s-49.7-8.7-49.7-8.7s-10.4,24.4-14.5,34.7c-1.6,3.8-3.6,7.5-5.8,11l66,15.9
				c0.2-0.8,0.5-1.7,0.8-2.6c5.1-13.7,20.7-34,23.4-41.7S287.4,356,287.4,356z"/>
		</g>
	</g>
	<path class="st9" d="M287.4,356c0,0,4.8,0,2.2,7.7s-18.3,28-23.4,41.7s3.6,18.6,3.6,18.6s-1.9,2.9-30.1-3.1s-46.3-6.8-48-11.6
		s9.4-17.8,13.5-28.2s14.5-34.7,14.5-34.7s41,8,49.7,8.7S287.4,356,287.4,356z"/>
	<path class="st18" d="M256.8,386.6c0,0,0,1.9,7.2-6.8s23.4-23.9,23.4-23.9l-74.5-16.1c0,0-21.2,21.9-23.9,25.3s-4.6,4.3,2.4,7.5
		s42,7,49.4,8.9S256.8,386.6,256.8,386.6z"/>
	<g>
		<defs>
			<path id="SVGID_17_" d="M256.8,386.6c0,0,0,1.9,7.2-6.8s23.4-23.9,23.4-23.9l-74.5-16.1c0,0-21.2,21.9-23.9,25.3
				s-4.6,4.3,2.4,7.5s42,7,49.4,8.9S256.8,386.6,256.8,386.6z"/>
		</defs>
		<clipPath id="SVGID_18_">
			<use xlink:href="#SVGID_17_"  style="overflow:visible;"/>
		</clipPath>
		<g class="st25">
			<path class="st18" d="M256.8,386.6c0,0,0,1.9,7.2-6.8s23.4-23.9,23.4-23.9l-74.5-16.1c0,0-21.2,21.9-23.9,25.3s-4.6,4.3,2.4,7.5
				s42,7,49.4,8.9S256.8,386.6,256.8,386.6z"/>
			<path class="st20" d="M256.8,386.6c0,0,0,1.9,7.2-6.8s23.4-23.9,23.4-23.9l-74.5-16.1c0,0-21.2,21.9-23.9,25.3s-4.6,4.3,2.4,7.5
				s42,7,49.4,8.9S256.8,386.6,256.8,386.6z"/>
		</g>
	</g>
	<path class="st9" d="M256.8,386.6c0,0,0,1.9,7.2-6.8s23.4-23.9,23.4-23.9l-74.5-16.1c0,0-21.2,21.9-23.9,25.3s-4.6,4.3,2.4,7.5
		s42,7,49.4,8.9S256.8,386.6,256.8,386.6z"/>
	<path class="st9" d="M262.4,378.9c0,0-45-5.3-57.5-7.8"/>
	<path class="st9" d="M266.3,371.7c0,0-26.7-2.8-37.8-5"/>
	<path class="st9" d="M272.1,364.2c0,0-32.8-5.8-41.1-8.1"/>
	<line class="st9" x1="277.4" y1="358.4" x2="238.2" y2="349.2"/>
	<path class="st18" d="M285.4,263c0,0-1.7,5.4-4.1,23.5s-6,38.8-10.9,54.3s-14.2,37.9-14.9,40.8c-0.4,1.8,0,3.6,1.2,5.1
		c0,0-9.4-1.4-35.9-4.3s-52.6-15.9-51.8-17.6s18.1-18.8,28-41s25.3-77.9,25.3-77.9s31.4,14.7,40.8,15.7S285.4,263,285.4,263z"/>
	<g>
		<defs>
			<path id="SVGID_19_" d="M285.4,263c0,0-1.7,5.4-4.1,23.5s-6,38.8-10.9,54.3s-14.2,37.9-14.9,40.8c-0.4,1.8,0,3.6,1.2,5.1
				c0,0-9.4-1.4-35.9-4.3s-52.6-15.9-51.8-17.6s18.1-18.8,28-41s25.3-77.9,25.3-77.9s31.4,14.7,40.8,15.7S285.4,263,285.4,263z"/>
		</defs>
		<clipPath id="SVGID_20_">
			<use xlink:href="#SVGID_19_"  style="overflow:visible;"/>
		</clipPath>
		<g class="st26">
			<path class="st13" d="M281.4,286.5c2.4-18.1,4.1-23.5,4.1-23.5s-13-0.6-22.4-1.6s-40.8-15.7-40.8-15.7s-11.1,39.9-20.4,65.6
				l71.2,20.7C276.6,317.1,279.4,301.9,281.4,286.5z"/>
		</g>
	</g>
	<path class="st9" d="M285.4,263c0,0-1.7,5.4-4.1,23.5s-6,38.8-10.9,54.3s-14.2,37.9-14.9,40.8c-0.4,1.8,0,3.6,1.2,5.1
		c0,0-9.4-1.4-35.9-4.3s-52.6-15.9-51.8-17.6s18.1-18.8,28-41s25.3-77.9,25.3-77.9s31.4,14.7,40.8,15.7S285.4,263,285.4,263z"/>
	<path class="st16" d="M291.7,252.2c0,0,4.7,1.1,6.1,8.5c1.3,7.4,1.1,25.8,0.6,28.1s-16.3,4.4-23.1,5.2s-3.2-1.7-0.2-12.5
		s6.3-18.8,7.8-21.1S287.5,249.9,291.7,252.2z"/>
	<path class="st13" d="M286.5,260.7c0,0,1.3,26.5,1.8,29.4s-17.4,4.3-17.4,4.3l11-30.8"/>
	<path class="st16" d="M286.9,300c0,0-6.5,4.6-8.7,5.7s-14.4-3.8-14.8-5.5s2.1-1.3,5.5-1s9.3,1.3,11.8,0.4S287.5,297.8,286.9,300z"
		/>
	<path class="st16" d="M295.3,292.1c0,0-2.1,5.7-4.8,7.4s-13.5,3.4-18.2,3s-8.7-3.4-7.6-5.1s-0.2-0.8,6.3-1.7s14.4-1.5,17.8-2.7
		C290.9,292.3,293.1,292,295.3,292.1z"/>
	<path class="st16" d="M295.9,280.9c0,0-7.2,3.8-13.1,6.5c-1.9,0.8-3.9,1.6-5.9,2.2c-2.4,0.3-4.8,0.4-7.2,0.5
		c-4.2,0-6.6-0.4-6.6,1.3c0,2.6,4.5,4,6.5,4.5c6.7,1.9,14.6-0.4,21.4-1.5c1.5-0.2,2.9-0.6,4.2-1.3c3.5-1.7,4.2-5.9,3.6-8.4l-0.2-0.3
		"/>
	<path class="st18" d="M285.4,263c0,0-4.4,12.3-9.3,27.5c-3.2,10-5.8,20.1-7.8,30.4c0,0-3.4-1.9-28.8-10.6s-57.3-19.4-57.3-19.4
		s23.9-28.1,29-41.6s7.8-11,19.6-6.4s28.1,12.9,37.6,13.8C277.8,257.7,285.4,261.1,285.4,263z"/>
	<g>
		<defs>
			<path id="SVGID_21_" d="M285.4,263c0,0-4.4,12.3-9.3,27.5c-3.2,10-5.8,20.1-7.8,30.4c0,0-3.4-1.9-28.8-10.6s-57.3-19.4-57.3-19.4
				s23.9-28.1,29-41.6s7.8-11,19.6-6.4s28.1,12.9,37.6,13.8C277.8,257.7,285.4,261.1,285.4,263z"/>
		</defs>
		<use xlink:href="#SVGID_21_"  style="overflow:visible;fill:#FFFFFF;"/>
		<clipPath id="SVGID_22_">
			<use xlink:href="#SVGID_21_"  style="overflow:visible;"/>
		</clipPath>
		<g class="st27">
			<path class="st18" d="M285.4,263c0,0-4.4,12.3-9.3,27.5c-3.2,10-5.8,20.1-7.8,30.4c0,0-3.4-1.9-28.8-10.6s-57.3-19.4-57.3-19.4
				s23.9-28.1,29-41.6s7.8-11,19.6-6.4s28.1,12.9,37.6,13.8C277.8,257.7,285.4,261.1,285.4,263z"/>
			<path class="st20" d="M285.4,263c0,0-4.4,12.3-9.3,27.5c-3.2,10-5.8,20.1-7.8,30.4c0,0-3.4-1.9-28.8-10.6s-57.3-19.4-57.3-19.4
				s23.9-28.1,29-41.6s7.8-11,19.6-6.4s28.1,12.9,37.6,13.8C277.8,257.7,285.4,261.1,285.4,263z"/>
		</g>
	</g>
	<path class="st9" d="M285.4,263c0,0-4.4,12.3-9.3,27.5c-3.2,10-5.8,20.1-7.8,30.4c0,0-3.4-1.9-28.8-10.6s-57.3-19.4-57.3-19.4
		s23.9-28.1,29-41.6s7.8-11,19.6-6.4s28.1,12.9,37.6,13.8C277.8,257.7,285.4,261.1,285.4,263z"/>
	<line class="st9" x1="266.8" y1="303.3" x2="203.2" y2="281.4"/>
	<line class="st9" x1="269.5" y1="295.8" x2="208.2" y2="274.7"/>
	<line class="st9" x1="272.1" y1="288.3" x2="212.6" y2="267.7"/>
	<line class="st9" x1="274.3" y1="279.1" x2="218.8" y2="260.2"/>
	<line class="st9" x1="276" y1="270.5" x2="224.3" y2="252.2"/>
	<ellipse class="st9" cx="199.8" cy="280.4" rx="2.5" ry="1.8"/>
	<ellipse class="st9" cx="205.1" cy="273.7" rx="2.5" ry="1.8"/>
	<ellipse class="st9" cx="209.3" cy="267.5" rx="2.5" ry="1.8"/>
	<ellipse class="st9" cx="213.7" cy="258.8" rx="2.5" ry="1.8"/>
	<path class="st9" d="M222.1,250.5c0-1-1.1-1.8-2.5-1.8s-2.5,0.8-2.5,1.8s1.1,1.8,2.5,1.8S222.1,251.5,222.1,250.5z"/>
	<path class="st16" d="M290.9,258.1c0,0-5.9,10.3-9.7,11.8s-14.8-0.2-14-2.7s6.3-3.2,9.9-8s6.8-11,10.2-10.1s5.9,4.9,6.1,6.3"/>
	<path class="st11" d="M193.4,189.2c0,0,1.1,19.4,1.1,20.1s-31.3,33.4-38.5,41s-7.4,13.9-5.7,18.6s7.6,11.6,12.9,12.3
		s11.2-4.5,16.5-16.3s24.3-47.3,26.4-51.1s7-7.2,7-7.2s5.1-2.7,7.4-6.5s6.6-11.4,11.4-15s7-4.6,4.9-5.7s-8.7,1.3-10.6,2.6
		s-6.1,4.8-6.1,4.8s-3.6-5.3-3.8-9.9s0.9-11.1-1.7-9.7s-7.1,11.1-12.7,16.4C196.6,188.6,193.4,186.4,193.4,189.2z"/>
	<g>
		<defs>
			<path id="SVGID_23_" d="M193.4,189.2c0,0,1.1,19.4,1.1,20.1s-31.3,33.4-38.5,41s-7.4,13.9-5.7,18.6s7.6,11.6,12.9,12.3
				s11.2-4.5,16.5-16.3s24.3-47.3,26.4-51.1s7-7.2,7-7.2s5.1-2.7,7.4-6.5s6.6-11.4,11.4-15s7-4.6,4.9-5.7s-8.7,1.3-10.6,2.6
				s-6.1,4.8-6.1,4.8s-3.6-5.3-3.8-9.9s0.9-11.1-1.7-9.7s-7.1,11.1-12.7,16.4C196.6,188.6,193.4,186.4,193.4,189.2z"/>
		</defs>
		<clipPath id="SVGID_24_">
			<use xlink:href="#SVGID_23_"  style="overflow:visible;"/>
		</clipPath>
		<g class="st28">
			<path class="st13" d="M236.8,179.5c-2.1-1.1-8.7,1.3-10.6,2.6s-6.1,4.8-6.1,4.8s-3.6-5.3-3.8-9.9s0.9-11.1-1.7-9.7
				s-7.1,11.1-12.7,16.4c-1.5,1.4-3.2,2.5-5.1,3.2l-0.9,4c0,0,3.9,2.5,3.9,5.7s5,4.3,5.3,7.4s-2.1,6.7-3.9,8.9s-30.5,51.7-37.9,57.8
				c-3.1,2.5-7.2,2.7-10.9,2.2c2.6,4,6.9,7.9,10.9,8.5c5.3,0.8,11.2-4.5,16.5-16.3s24.3-47.3,26.4-51.1s7-7.2,7-7.2s5.1-2.7,7.4-6.5
				s6.6-11.4,11.4-15S238.9,180.6,236.8,179.5z"/>
		</g>
	</g>
	<path class="st9" d="M193.4,189.2c0,0,1.1,19.4,1.1,20.1s-31.3,33.4-38.5,41s-7.4,13.9-5.7,18.6s7.6,11.6,12.9,12.3
		s11.2-4.5,16.5-16.3s24.3-47.3,26.4-51.1s7-7.2,7-7.2s5.1-2.7,7.4-6.5s6.6-11.4,11.4-15s7-4.6,4.9-5.7s-8.7,1.3-10.6,2.6
		s-6.1,4.8-6.1,4.8s-3.6-5.3-3.8-9.9s0.9-11.1-1.7-9.7s-7.1,11.1-12.7,16.4C196.6,188.6,193.4,186.4,193.4,189.2z"/>
	<path class="st10" d="M251.8,168.3l0.1,0.1c0.6,1.1,0.2,2.4-0.8,3c0,0,0,0,0,0l-36.1,20l-7,1.5l4.8-5.5l36.1-20
		C249.9,166.9,251.2,167.3,251.8,168.3z"/>
	<polygon class="st21" points="215,191.5 215.2,191.3 213,187.4 212.8,187.5 208,193 	"/>
	<path class="st21" d="M247.3,173.5l3.7-2.1c1.1-0.6,1.4-1.9,0.9-3c0,0,0,0,0,0l-0.1-0.1c-0.6-1.1-1.9-1.4-3-0.9c0,0,0,0,0,0
		l-3.7,2.1L247.3,173.5z"/>
	
		<rect x="244.6" y="169.5" transform="matrix(0.8732 -0.4874 0.4874 0.8732 -52.586 141.562)" class="st21" width="2.3" height="4.6"/>
	<polygon class="st21" points="208,193 211.3,192.3 210.2,190.4 	"/>
	<path class="st9" d="M201.9,193.8c0,0-0.6,4.6-4.2,4.7"/>
	<path class="st16" d="M212.1,171c0,0,6.6,10.6,8.9,12.7s5.1,1.7,5.7-0.2s-3.2-5.9-4.7-11s-2.1-6.6-5.1-5.9S212.3,169.1,212.1,171z"
		/>
	<path class="st16" d="M222.8,184.6c0,0-11.9-6.1-14.6-9.1s-5.7,0.9-6.3,3s8.7,5.9,13.1,7.4s7,2.1,8.4,0.6S222.8,184.6,222.8,184.6z
		"/>
	<path class="st16" d="M202.7,180.3c0,0-4,1.3-4.8,3s1.3,2.9,5.1,5.1s9.9,3,11.4,2.3s1.7-2.3-0.4-3S204.4,181.4,202.7,180.3z"/>
	<path class="st16" d="M199.3,186.2c0,0-4.4-1.1-5.7,1.3s0.2,4,4.7,5.3s11.4,2.3,11.6-0.2s-3.6-2.9-6.8-4.2S199.3,186.2,199.3,186.2
		z"/>
</g>
<g id="freepik--Plants--inject-31">
	<path class="st7" d="M92.5,347.6c0,0-2.2-7.1-8.6-9.6c-4.4-1.8-9.5-1.3-14.1-0.5c-8.5,1.5-16,4.9-24.1,7.8c0,0,3.5-1.3,17.7,5.6
		c5.2,2.5,11.2,4.5,17.2,4.4C85.3,355.1,92.7,353.8,92.5,347.6z"/>
	<path class="st7" d="M93.2,326.7c0,0,0-7.4-5.4-11.7c-3.7-3-8.8-4-13.4-4.6c-8.6-1-16.7,0-25.3,0.5c0,0,3.7-0.2,15.3,10.5
		c4.3,4,9.4,7.6,15.2,9.2C84.2,331.9,91.7,332.7,93.2,326.7z"/>
	<path class="st7" d="M107.9,354.3c0,0-5.8-4.6-5.8-11.5c0-4.8,2.3-9.3,4.7-13.3c4.5-7.4,10.4-13.1,16.1-19.5c0,0-2.5,2.7-1.3,18.5
		c0.4,5.8,0.1,12.1-2.3,17.6C117.6,350.5,113.6,356.8,107.9,354.3z"/>
	<path class="st7" d="M128.4,365.7c0,0-0.8-7.4,4-12.3c3.4-3.4,8.2-5,12.8-6.1c8.4-2,16.6-1.9,25.2-2.4c0,0-3.7,0.2-14,12.2
		c-3.8,4.4-8.5,8.6-14,10.9C138,369.8,130.7,371.5,128.4,365.7z"/>
	<path class="st7" d="M127.1,339.4c0,0-7.4-1-10.9-6.9c-2.5-4.1-2.8-9.2-2.8-13.9c0.1-8.7,2.2-16.6,3.8-25c0,0-0.7,3.6,8.4,16.5
		c3.4,4.8,6.3,10.3,7.1,16.3C133.4,331.1,133.2,338.6,127.1,339.4z"/>
	<path class="st7" d="M148.3,326.2c0,0,5.3,5.2,12.1,4.4c4.7-0.5,9-3.4,12.7-6.3c6.8-5.4,11.8-11.9,17.5-18.3c0,0-2.4,2.8-18.2,3.4
		c-5.8,0.2-12,1.3-17.2,4.3C151,316.1,145.1,320.8,148.3,326.2z"/>
	<path class="st7" d="M142.1,321c0,0,7.4,0.7,12.2-4.1c3.4-3.4,4.9-8.3,5.9-12.8c1.9-8.5,1.7-16.6,2.2-25.3c0,0-0.2,3.7-12.1,14.1
		c-4.4,3.8-8.5,8.6-10.7,14.1C138,311.5,136.4,318.8,142.1,321z"/>
	<polyline class="st9" points="115.8,393 103,361.6 88.3,325.3 	"/>
	<polyline class="st9" points="118.7,387.6 131.5,343.9 145.2,316.9 	"/>
	<line class="st9" x1="123.6" y1="370.4" x2="136.4" y2="363"/>
	<line class="st9" x1="131.5" y1="343.9" x2="125.1" y2="329.7"/>
	<line class="st9" x1="139.4" y1="329.7" x2="155" y2="322.8"/>
	<line class="st9" x1="105.4" y1="367.4" x2="110.8" y2="345.9"/>
	<line class="st9" x1="98.3" y1="351" x2="85.8" y2="344.4"/>
	<polygon class="st8" points="128.5,408.7 105.5,408.7 100.6,382.6 133.4,382.6 	"/>
</g>
</svg>
